<svg width="80" height="80" viewBox="0 0 80 80" fill="none" xmlns="http://www.w3.org/2000/svg">
<path d="M27.4949 59.4986C27.4949 57.8596 25.1102 54.9973 24.6237 54.4391C24.3983 54.1778 23.9593 54.1778 23.7339 54.4391C23.2475 54.9973 20.8627 57.8596 20.8627 59.4986C20.8627 61.3276 22.3458 62.8122 24.1847 62.8122C26.0119 62.8122 27.4949 61.3276 27.4949 59.4986ZM68 10.6854C68 9.4383 67.5136 8.26251 66.6237 7.37176C64.7966 5.54275 61.8305 5.54275 60.0034 7.37176L51.3068 16.0655L50.9627 15.7211C50.0136 14.7709 48.3525 14.7709 47.4034 15.7211C46.9407 16.1843 46.6797 16.8256 46.6797 17.4907C46.6797 18.1677 46.9407 18.7971 47.4034 19.2722L47.7593 19.6166L27.4831 39.9139C27.4712 39.9258 27.4593 39.9376 27.4475 39.9495L26.2136 41.1847C25.2288 42.1705 24.7542 43.5125 24.8729 44.9021L22.4763 47.3012C21.3017 48.477 21.3017 50.3891 22.4763 51.5649C23.0458 52.135 23.8051 52.4438 24.6119 52.4438C25.4186 52.4438 26.178 52.135 26.7475 51.5649L29.1322 49.1658C30.5322 49.2846 31.8729 48.8095 32.8576 47.8238L39.7508 40.9234L54.3915 26.2676L54.7475 26.612C55.2339 27.0989 55.8746 27.3484 56.5153 27.3484C57.1559 27.3484 57.8085 27.0989 58.2949 26.612C59.2678 25.6381 59.2678 24.0348 58.2949 23.0609L57.939 22.7046L66.6237 14.0108C67.5136 13.1201 68 11.9443 68 10.6854ZM39.0864 39.902L29.2983 39.7714L48.6017 20.4599L53.561 25.4243L39.0864 39.902ZM57.4525 25.7688C56.9424 26.2913 56.1 26.2913 55.578 25.7688L48.2458 18.429C47.9966 18.1795 47.8661 17.847 47.8661 17.4907C47.8661 17.1344 47.9966 16.8019 48.2458 16.5524C48.4949 16.303 48.8271 16.1724 49.1831 16.1724C49.539 16.1724 49.8712 16.303 50.1203 16.5524L50.8915 17.3363L56.6814 23.1203L57.4525 23.9041C57.9746 24.4148 57.9746 25.2581 57.4525 25.7688ZM57.0966 21.8613L52.1492 16.9087L60.8339 8.215C62.1627 6.88481 64.4644 6.88481 65.7932 8.215C66.4458 8.86822 66.8136 9.75897 66.8136 10.6854C66.8136 11.6236 66.4458 12.5025 65.7932 13.1676L57.0966 21.8613ZM14.5508 71.0665C14.5508 73.9644 26.9017 74 27.4237 74C27.9576 74 40.3085 73.9644 40.3085 71.0665C40.3085 70.0451 38.8254 69.2731 35.8831 68.7743C37.5085 68.2042 37.7576 67.5747 37.7576 67.0996C37.7576 64.2136 25.4068 64.178 24.8847 64.178C24.3508 64.178 12 64.2136 12 67.0996C12 68.2636 14.017 68.9762 16.4373 69.3918C14.8 69.9619 14.5508 70.5914 14.5508 71.0665ZM12.8364 19.7306C12.668 19.8078 12.5458 19.9599 12.5066 20.1404C12.4663 20.3209 12.5125 20.5109 12.6312 20.6523C12.732 20.7734 15.1512 23.6108 18.7983 24.4291C18.9905 24.4718 19.1839 24.5086 19.3797 24.5395C17.6463 26.068 16.8929 28.0372 16.8573 28.1346C16.792 28.308 16.8122 28.5016 16.9107 28.6584C17.0092 28.8151 17.1741 28.9173 17.358 28.9339C17.4802 28.9458 20.3466 29.1881 22.7895 27.65C22.958 27.5431 23.1253 27.4279 23.289 27.3044L23.1347 28.5455C23.1134 28.7142 23.1656 28.884 23.2795 29.0123C23.3922 29.1394 23.5536 29.213 23.7244 29.213H27.7583C27.9292 29.213 28.0905 29.1394 28.2032 29.0123C28.3159 28.8852 28.3681 28.7154 28.348 28.5455L28.1949 27.302C28.3598 27.4256 28.5271 27.5419 28.6968 27.6488C31.1385 29.1869 34.0037 28.9422 34.1271 28.9327C34.311 28.9161 34.4771 28.8139 34.5744 28.6572C34.6729 28.5004 34.6931 28.3068 34.6278 28.1334C34.591 28.036 33.8376 26.0657 32.1066 24.5383C32.3024 24.5074 32.4958 24.4706 32.6868 24.4279C36.3339 23.6096 38.7531 20.771 38.8539 20.6511C38.9737 20.5098 39.02 20.3209 38.9785 20.1392C38.9381 19.9587 38.8159 19.8067 38.6486 19.7295C38.5217 19.6701 35.8036 18.4373 32.6393 18.752C34.2588 16.056 34.3324 13.1284 34.3347 12.9894C34.3383 12.8042 34.2553 12.6284 34.1093 12.5132C33.9634 12.398 33.7724 12.3564 33.5944 12.4039C33.471 12.436 30.9285 13.1046 28.7537 15.0393C28.4476 11.335 26.3132 8.49529 26.2159 8.36702C25.9917 8.07248 25.4981 8.07248 25.2727 8.36702C25.1754 8.49529 23.041 11.3362 22.7349 15.0405C20.5602 13.1046 18.0188 12.436 17.8942 12.4039C17.7151 12.3564 17.5241 12.398 17.3793 12.5132C17.2334 12.6284 17.1503 12.8042 17.1539 12.9894C17.1563 13.1284 17.2286 16.0572 18.8493 18.7532C15.6768 18.4396 12.9669 19.6701 12.84 19.7295L12.8364 19.7306Z" fill="#11D442"/>
</svg>
