<svg width="80" height="80" viewBox="0 0 80 80" fill="none" xmlns="http://www.w3.org/2000/svg">
<path d="M40 69C35.9883 69 32.2183 68.2397 28.69 66.7191C25.1617 65.1985 22.0925 63.1348 19.4825 60.5281C16.8725 57.9213 14.8062 54.856 13.2837 51.3321C11.7612 47.8082 11 44.0429 11 40.0362C11 36.4157 11.7008 32.8677 13.1025 29.392C14.5042 25.9164 16.4617 22.8148 18.975 20.0874C21.4883 17.36 24.5092 15.1635 28.0375 13.4981C31.5658 11.8327 35.4325 11 39.6375 11C40.6525 11 41.6917 11.0483 42.755 11.1448C43.8183 11.2414 44.9058 11.4103 46.0175 11.6517C45.5825 13.824 45.7275 15.8756 46.4525 17.8065C47.1775 19.7374 48.265 21.3425 49.715 22.6217C51.165 23.901 52.8929 24.7819 54.8987 25.2647C56.9046 25.7474 58.9708 25.6267 61.0975 24.9026C59.8408 27.7507 60.0221 30.4782 61.6412 33.0849C63.2604 35.6916 65.665 37.0433 68.855 37.1398C68.9033 37.6708 68.9396 38.1656 68.9637 38.6242C68.9879 39.0828 69 39.5776 69 40.1086C69 44.067 68.2387 47.7961 66.7162 51.2959C65.1937 54.7957 63.1275 57.861 60.5175 60.4919C57.9075 63.1228 54.8383 65.1985 51.31 66.7191C47.7817 68.2397 44.0117 69 40 69ZM35.65 34.2434C36.8583 34.2434 37.8854 33.8211 38.7312 32.9763C39.5771 32.1315 40 31.1057 40 29.8989C40 28.6921 39.5771 27.6663 38.7312 26.8215C37.8854 25.9767 36.8583 25.5543 35.65 25.5543C34.4417 25.5543 33.4146 25.9767 32.5687 26.8215C31.7229 27.6663 31.3 28.6921 31.3 29.8989C31.3 31.1057 31.7229 32.1315 32.5687 32.9763C33.4146 33.8211 34.4417 34.2434 35.65 34.2434ZM29.85 48.7253C31.0583 48.7253 32.0854 48.303 32.9312 47.4582C33.7771 46.6134 34.2 45.5876 34.2 44.3808C34.2 43.1739 33.7771 42.1481 32.9312 41.3034C32.0854 40.4586 31.0583 40.0362 29.85 40.0362C28.6417 40.0362 27.6146 40.4586 26.7687 41.3034C25.9229 42.1481 25.5 43.1739 25.5 44.3808C25.5 45.5876 25.9229 46.6134 26.7687 47.4582C27.6146 48.303 28.6417 48.7253 29.85 48.7253ZM48.7 51.6217C49.5217 51.6217 50.2104 51.3442 50.7662 50.789C51.3221 50.2339 51.6 49.546 51.6 48.7253C51.6 47.9047 51.3221 47.2168 50.7662 46.6617C50.2104 46.1065 49.5217 45.829 48.7 45.829C47.8783 45.829 47.1896 46.1065 46.6337 46.6617C46.0779 47.2168 45.8 47.9047 45.8 48.7253C45.8 49.546 46.0779 50.2339 46.6337 50.789C47.1896 51.3442 47.8783 51.6217 48.7 51.6217ZM40 63.2072C45.8967 63.2072 51.1287 61.1798 55.6962 57.1248C60.2637 53.0699 62.765 47.9047 63.2 41.6292C60.7833 40.5672 58.8862 39.119 57.5087 37.2846C56.1312 35.4503 55.2008 33.3987 54.7175 31.1298C50.9958 30.5988 47.8058 29.0058 45.1475 26.3508C42.4892 23.6958 40.8458 20.5098 40.2175 16.7928C36.3508 16.6962 32.9554 17.3962 30.0312 18.8926C27.1071 20.3891 24.6662 22.3079 22.7087 24.6492C20.7512 26.9904 19.2771 29.5368 18.2862 32.2884C17.2954 35.0399 16.8 37.6226 16.8 40.0362C16.8 46.4565 19.0596 51.9234 23.5787 56.437C28.0979 60.9505 33.5717 63.2072 40 63.2072Z" fill="#11D442"/>
</svg>
