<svg width="80" height="80" viewBox="0 0 80 80" fill="none" xmlns="http://www.w3.org/2000/svg">
<path d="M36.2222 69V42.8597C32.7259 42.8597 29.3662 42.1905 26.1431 40.8521C22.9199 39.5137 20.0792 37.6153 17.6208 35.1569C15.1625 32.6986 13.2778 29.8579 11.9667 26.6347C10.6556 23.4116 10 20.0519 10 16.5556V10H16.5556C19.9972 10 23.3296 10.6692 26.5528 12.0076C29.7759 13.3461 32.6167 15.2444 35.075 17.7028C36.7685 19.3963 38.1752 21.2537 39.2951 23.275C40.415 25.2963 41.2755 27.4542 41.8764 29.7486C42.1495 29.3662 42.45 28.9975 42.7778 28.6424C43.1056 28.2873 43.4606 27.9185 43.8431 27.5361C46.3014 25.0778 49.1421 23.1794 52.3653 21.841C55.5884 20.5025 58.9481 19.8333 62.4444 19.8333H69V26.3889C69 29.8852 68.3308 33.2449 66.9924 36.4681C65.6539 39.6912 63.7556 42.5319 61.2972 44.9903C58.8389 47.4486 56.0118 49.3333 52.816 50.6444C49.6201 51.9556 46.2741 52.6111 42.7778 52.6111V69H36.2222ZM36.2222 36.2222C36.2222 33.6 35.7169 31.1007 34.7062 28.7243C33.6956 26.3479 32.2616 24.231 30.4042 22.3736C28.5468 20.5162 26.4299 19.0822 24.0535 18.0715C21.6771 17.0609 19.1778 16.5556 16.5556 16.5556C16.5556 19.1778 17.0472 21.6907 18.0306 24.0944C19.0139 26.4981 20.4343 28.6287 22.2917 30.4861C24.1491 32.3435 26.2796 33.7639 28.6833 34.7472C31.087 35.7306 33.6 36.2222 36.2222 36.2222ZM42.7778 46.0556C45.4 46.0556 47.8993 45.5639 50.2757 44.5806C52.6521 43.5972 54.769 42.1769 56.6264 40.3194C58.4838 38.462 59.9178 36.3315 60.9285 33.9278C61.9391 31.5241 62.4444 29.0111 62.4444 26.3889C59.8222 26.3889 57.3093 26.8942 54.9056 27.9049C52.5019 28.9155 50.3713 30.3495 48.5139 32.2069C46.6565 34.0644 45.2361 36.1813 44.2528 38.5576C43.2694 40.934 42.7778 43.4333 42.7778 46.0556Z" fill="#11D442"/>
</svg>
