<svg width="80" height="80" viewBox="0 0 80 80" fill="none" xmlns="http://www.w3.org/2000/svg">
<path d="M27.5443 42.3807C28.4797 42.3807 29.3483 42.247 30.1501 42.1134C28.4129 44.1179 27.9452 46.5901 27.9452 46.5901C27.9452 46.5901 30.9519 46.1892 33.2237 44.1179C33.4909 43.9175 33.6914 43.6502 33.8918 43.4497L33.5577 49.8641C33.4909 50.4655 34.0255 51 34.6268 51H35.295C35.8963 51 36.4308 50.4655 36.364 49.8641L36.03 43.3161C36.2304 43.5834 36.4308 43.7838 36.6981 43.9843C38.9031 46.0556 41.9766 46.4565 41.9766 46.4565C41.9766 46.4565 41.5089 43.9843 39.7717 41.9798C40.5735 42.1802 41.4421 42.247 42.3775 42.247C46.6538 42.247 50.1951 39.708 50.1951 39.708C50.1951 39.708 47.0547 37.4363 43.0457 37.2358C43.8475 36.6345 44.5825 35.8995 45.3174 35.0977C49.5269 30.4205 50.1282 24.0729 50.1282 24.0729C50.1282 24.0729 43.9811 25.4093 39.7717 30.1533C39.3708 30.621 38.9699 31.0887 38.6358 31.5564C38.7694 30.4873 38.8362 29.3515 38.8362 28.2156C38.8362 20.2644 35.0277 13.7832 35.0277 13.7832C35.0277 13.7832 31.2192 20.2644 31.2192 28.2156C31.2192 29.3515 31.286 30.4873 31.4196 31.5564C31.0855 31.0887 30.6846 30.621 30.2837 30.1533C26.0743 25.4761 19.9272 24.0729 19.9272 24.0729C19.9272 24.0729 20.5285 30.3537 24.738 35.0977C25.4729 35.8995 26.2079 36.5676 27.0097 37.2358C23.0007 37.4363 19.8604 39.708 19.8604 39.708C19.8604 39.708 23.268 42.3807 27.5443 42.3807Z" fill="#11D442"/>
<path d="M61.3533 52.9374L10.1718 58.3495C7.63282 58.6168 7.63282 62.2917 10.1718 62.559L61.3533 67.9711C62.4892 68.1047 63.4914 67.1693 63.4914 66.0334V54.8751C63.4914 53.6724 62.4892 52.8038 61.3533 52.9374Z" fill="#11D442"/>
<path d="M66.5654 48.9289C66.2313 50.1316 67.9017 50.9334 68.6367 49.8644C75.5188 39.9087 69.238 36.0333 66.0308 30.4876C62.4228 24.14 65.1622 17.9929 68.169 13.8503C68.904 12.848 67.7013 11.5117 66.6322 12.1798C61.4873 15.5875 55.3402 21.3337 57.2779 28.7503C59.8169 38.9733 69.1712 39.3074 66.5654 48.9289Z" fill="#11D442"/>
<path d="M69.7714 54.0723L67.5665 53.6714C66.6979 53.5378 65.9629 54.2059 65.9629 55.0077V65.7652C65.9629 66.6338 66.6979 67.2352 67.5665 67.1015L69.7714 66.7006C70.4396 66.567 70.9073 66.0325 70.9073 65.3643V55.3418C70.9073 54.8073 70.3728 54.2059 69.7714 54.0723Z" fill="#11D442"/>
</svg>
