<svg width="80" height="80" viewBox="0 0 80 80" fill="none" xmlns="http://www.w3.org/2000/svg">
<path d="M52.2778 28C51.0509 28 50.0081 27.5625 49.1493 26.6875C48.2905 25.8125 47.8611 24.75 47.8611 23.5C47.8611 22.65 48.2782 21.525 49.1125 20.125C49.9468 18.725 51.0019 17.35 52.2778 16C53.5537 17.35 54.6088 18.725 55.4431 20.125C56.2773 21.525 56.6944 22.65 56.6944 23.5C56.6944 24.75 56.265 25.8125 55.4063 26.6875C54.5475 27.5625 53.5046 28 52.2778 28ZM59.6389 49C57.5778 49 55.8356 48.275 54.4125 46.825C52.9894 45.375 52.2778 43.6 52.2778 41.5C52.2778 39.75 53.0384 37.5875 54.5597 35.0125C56.081 32.4375 57.7741 30.1 59.6389 28C61.5037 30.1 63.1968 32.4375 64.7181 35.0125C66.2394 37.5875 67 39.75 67 41.5C67 43.6 66.2884 45.375 64.8653 46.825C63.4421 48.275 61.7 49 59.6389 49ZM28.7222 58H34.6111V52H40.5V46H34.6111V40H28.7222V46H22.8333V52H28.7222V58ZM19.8889 70C18.2694 70 16.8831 69.4125 15.7299 68.2375C14.5766 67.0625 14 65.65 14 64V40C14 35.5 15.3986 31.6 18.1958 28.3C20.9931 25 24.5019 23 28.7222 22.3V16H22.8333V10H40.5C42.1685 10 43.7389 10.2625 45.2111 10.7875C46.6833 11.3125 48.0574 12.05 49.3333 13L45.0639 17.35C44.3769 16.95 43.653 16.625 42.8924 16.375C42.1317 16.125 41.3343 16 40.5 16H34.6111V22.3C38.8315 23 42.3403 25 45.1375 28.3C47.9347 31.6 49.3333 35.5 49.3333 40V64C49.3333 65.65 48.7567 67.0625 47.6035 68.2375C46.4502 69.4125 45.0639 70 43.4444 70H19.8889ZM19.8889 64H43.4444V40C43.4444 36.7 42.2912 33.875 39.9847 31.525C37.6782 29.175 34.9056 28 31.6667 28C28.4278 28 25.6551 29.175 23.3486 31.525C21.0421 33.875 19.8889 36.7 19.8889 40V64ZM19.8889 64C19.8889 64 21.0421 64 23.3486 64C25.6551 64 28.4278 64 31.6667 64C34.9056 64 37.6782 64 39.9847 64C42.2912 64 43.4444 64 43.4444 64H19.8889Z" fill="#11D442"/>
</svg>
