<svg width="80" height="80" viewBox="0 0 80 80" fill="none" xmlns="http://www.w3.org/2000/svg">
<path fill-rule="evenodd" clip-rule="evenodd" d="M58.1548 74V27.237H21.8457V74H58.1548ZM29.8503 9.96299H36.1006V6H29.8503V9.96299ZM25.1136 24.6655H40.8374V12.5344H25.1136V24.6655ZM32.9762 43.0514C30.6489 43.0514 28.7545 41.1583 28.7545 38.831C28.7545 36.5029 30.6489 34.6099 32.9762 34.6099C35.3029 34.6099 37.196 36.503 37.196 38.831C37.1959 41.1583 35.3028 43.0514 32.9762 43.0514ZM32.9762 32.0383C36.7218 32.0383 39.7674 35.0854 39.7674 38.8309C39.7674 42.5756 36.7216 45.6227 32.9762 45.6227C29.2299 45.6227 26.183 42.5756 26.183 38.8309C26.1828 35.0855 29.2299 32.0383 32.9762 32.0383Z" fill="#11D442"/>
</svg>
